solid ASCII
  facet normal -7.071068e-01 2.073768e-11 -7.071068e-01
    outer loop
      vertex   -1.730766e+01 3.438622e+00 -1.564616e+01
      vertex   -1.739454e+01 3.674725e+00 -1.555928e+01
      vertex   -1.719076e+01 3.230036e+00 -1.576306e+01
    endloop
  endfacet
  facet normal -7.071068e-01 2.072394e-11 -7.071068e-01
    outer loop
      vertex   -1.719076e+01 3.230036e+00 -1.576306e+01
      vertex   -1.739454e+01 3.674725e+00 -1.555928e+01
      vertex   -1.704806e+01 3.056508e+00 -1.590576e+01
    endloop
  endfacet
  facet normal -7.071068e-01 2.075117e-11 -7.071068e-01
    outer loop
      vertex   -1.704806e+01 3.056508e+00 -1.590576e+01
      vertex   -1.739454e+01 3.674725e+00 -1.555928e+01
      vertex   -1.744825e+01 3.929813e+00 -1.550557e+01
    endloop
  endfacet
  facet normal -7.071068e-01 2.074204e-11 -7.071068e-01
    outer loop
      vertex   -1.704806e+01 3.056508e+00 -1.590576e+01
      vertex   -1.744825e+01 3.929813e+00 -1.550557e+01
      vertex   -1.688472e+01 2.924309e+00 -1.606910e+01
    endloop
  endfacet
  facet normal -7.071068e-01 2.074829e-11 -7.071068e-01
    outer loop
      vertex   -1.688472e+01 2.924309e+00 -1.606910e+01
      vertex   -1.744825e+01 3.929813e+00 -1.550557e+01
      vertex   -1.746685e+01 4.194667e+00 -1.548697e+01
    endloop
  endfacet
  facet normal -7.071068e-01 2.075931e-11 -7.071068e-01
    outer loop
      vertex   -1.688472e+01 2.924309e+00 -1.606910e+01
      vertex   -1.746685e+01 4.194667e+00 -1.548697e+01
      vertex   -1.670663e+01 2.838216e+00 -1.624719e+01
    endloop
  endfacet
  facet normal -7.071068e-01 2.075632e-11 -7.071068e-01
    outer loop
      vertex   -1.670663e+01 2.838216e+00 -1.624719e+01
      vertex   -1.746685e+01 4.194667e+00 -1.548697e+01
      vertex   -1.744968e+01 4.459713e+00 -1.550414e+01
    endloop
  endfacet
  facet normal -7.071068e-01 2.074657e-11 -7.071068e-01
    outer loop
      vertex   -1.670663e+01 2.838216e+00 -1.624719e+01
      vertex   -1.744968e+01 4.459713e+00 -1.550414e+01
      vertex   -1.652025e+01 2.801342e+00 -1.643357e+01
    endloop
  endfacet
  facet normal -7.071068e-01 2.075560e-11 -7.071068e-01
    outer loop
      vertex   -1.652025e+01 2.801342e+00 -1.643357e+01
      vertex   -1.744968e+01 4.459713e+00 -1.550414e+01
      vertex   -1.739734e+01 4.715372e+00 -1.555648e+01
    endloop
  endfacet
  facet normal -7.071068e-01 2.075131e-11 -7.071068e-01
    outer loop
      vertex   -1.652025e+01 2.801342e+00 -1.643357e+01
      vertex   -1.739734e+01 4.715372e+00 -1.555648e+01
      vertex   -1.633229e+01 2.815019e+00 -1.662153e+01
    endloop
  endfacet
  facet normal -7.071068e-01 2.074819e-11 -7.071068e-01
    outer loop
      vertex   -1.633229e+01 2.815019e+00 -1.662153e+01
      vertex   -1.739734e+01 4.715372e+00 -1.555648e+01
      vertex   -1.731174e+01 4.952405e+00 -1.564208e+01
    endloop
  endfacet
  facet normal -7.071068e-01 2.074816e-11 -7.071068e-01
    outer loop
      vertex   -1.633229e+01 2.815019e+00 -1.662153e+01
      vertex   -1.731174e+01 4.952405e+00 -1.564208e+01
      vertex   -1.614957e+01 2.878753e+00 -1.680425e+01
    endloop
  endfacet
  facet normal -7.071068e-01 2.074936e-11 -7.071068e-01
    outer loop
      vertex   -1.614957e+01 2.878753e+00 -1.680425e+01
      vertex   -1.731174e+01 4.952405e+00 -1.564208e+01
      vertex   -1.719597e+01 5.162244e+00 -1.575785e+01
    endloop
  endfacet
  facet normal -7.071068e-01 2.074867e-11 -7.071068e-01
    outer loop
      vertex   -1.614957e+01 2.878753e+00 -1.680425e+01
      vertex   -1.719597e+01 5.162244e+00 -1.575785e+01
      vertex   -1.597867e+01 2.990240e+00 -1.697515e+01
    endloop
  endfacet
  facet normal -7.071068e-01 2.075378e-11 -7.071068e-01
    outer loop
      vertex   -1.597867e+01 2.990240e+00 -1.697515e+01
      vertex   -1.719597e+01 5.162244e+00 -1.575785e+01
      vertex   -1.705420e+01 5.337304e+00 -1.589961e+01
    endloop
  endfacet
  facet normal -7.071068e-01 2.075363e-11 -7.071068e-01
    outer loop
      vertex   -1.597867e+01 2.990240e+00 -1.697515e+01
      vertex   -1.705420e+01 5.337304e+00 -1.589961e+01
      vertex   -1.582578e+01 3.145451e+00 -1.712803e+01
    endloop
  endfacet
  facet normal -7.071068e-01 2.075107e-11 -7.071068e-01
    outer loop
      vertex   -1.582578e+01 3.145451e+00 -1.712803e+01
      vertex   -1.705420e+01 5.337304e+00 -1.589961e+01
      vertex   -1.689158e+01 5.471260e+00 -1.606224e+01
    endloop
  endfacet
  facet normal -7.071068e-01 2.075421e-11 -7.071068e-01
    outer loop
      vertex   -1.582578e+01 3.145451e+00 -1.712803e+01
      vertex   -1.689158e+01 5.471260e+00 -1.606224e+01
      vertex   -1.569643e+01 3.338776e+00 -1.725739e+01
    endloop
  endfacet
  facet normal -7.071068e-01 2.074449e-11 -7.071068e-01
    outer loop
      vertex   -1.569643e+01 3.338776e+00 -1.725739e+01
      vertex   -1.689158e+01 5.471260e+00 -1.606224e+01
      vertex   -1.671396e+01 5.559269e+00 -1.623986e+01
    endloop
  endfacet
  facet normal -7.071068e-01 2.074723e-11 -7.071068e-01
    outer loop
      vertex   -1.569643e+01 3.338776e+00 -1.725739e+01
      vertex   -1.671396e+01 5.559269e+00 -1.623986e+01
      vertex   -1.559529e+01 3.563228e+00 -1.735853e+01
    endloop
  endfacet
  facet normal -7.071068e-01 2.075575e-11 -7.071068e-01
    outer loop
      vertex   -1.559529e+01 3.563228e+00 -1.735853e+01
      vertex   -1.671396e+01 5.559269e+00 -1.623986e+01
      vertex   -1.652778e+01 5.598150e+00 -1.642604e+01
    endloop
  endfacet
  facet normal -7.071068e-01 2.075643e-11 -7.071068e-01
    outer loop
      vertex   -1.559529e+01 3.563228e+00 -1.735853e+01
      vertex   -1.652778e+01 5.598150e+00 -1.642604e+01
      vertex   -1.552600e+01 3.810695e+00 -1.742781e+01
    endloop
  endfacet
  facet normal -7.071068e-01 2.075173e-11 -7.071068e-01
    outer loop
      vertex   -1.552600e+01 3.810695e+00 -1.742781e+01
      vertex   -1.652778e+01 5.598150e+00 -1.642604e+01
      vertex   -1.633976e+01 5.586499e+00 -1.661406e+01
    endloop
  endfacet
  facet normal -7.071068e-01 2.074065e-11 -7.071068e-01
    outer loop
      vertex   -1.552600e+01 3.810695e+00 -1.742781e+01
      vertex   -1.633976e+01 5.586499e+00 -1.661406e+01
      vertex   -1.549109e+01 4.072232e+00 -1.746273e+01
    endloop
  endfacet
  facet normal -7.071068e-01 2.074480e-11 -7.071068e-01
    outer loop
      vertex   -1.549109e+01 4.072232e+00 -1.746273e+01
      vertex   -1.633976e+01 5.586499e+00 -1.661406e+01
      vertex   -1.615669e+01 5.524736e+00 -1.679712e+01
    endloop
  endfacet
  facet normal -7.071068e-01 2.076040e-11 -7.071068e-01
    outer loop
      vertex   -1.549109e+01 4.072232e+00 -1.746273e+01
      vertex   -1.615669e+01 5.524736e+00 -1.679712e+01
      vertex   -1.549181e+01 4.338387e+00 -1.746201e+01
    endloop
  endfacet
  facet normal -7.071068e-01 2.076272e-11 -7.071068e-01
    outer loop
      vertex   -1.549181e+01 4.338387e+00 -1.746201e+01
      vertex   -1.615669e+01 5.524736e+00 -1.679712e+01
      vertex   -1.598520e+01 5.415093e+00 -1.696861e+01
    endloop
  endfacet
  facet normal -7.071068e-01 2.074130e-11 -7.071068e-01
    outer loop
      vertex   -1.549181e+01 4.338387e+00 -1.746201e+01
      vertex   -1.598520e+01 5.415093e+00 -1.696861e+01
      vertex   -1.552813e+01 4.599540e+00 -1.742569e+01
    endloop
  endfacet
  facet normal -7.071068e-01 2.075544e-11 -7.071068e-01
    outer loop
      vertex   -1.552813e+01 4.599540e+00 -1.742569e+01
      vertex   -1.598520e+01 5.415093e+00 -1.696861e+01
      vertex   -1.583148e+01 5.261534e+00 -1.712233e+01
    endloop
  endfacet
  facet normal -7.071068e-01 2.076210e-11 -7.071068e-01
    outer loop
      vertex   -1.552813e+01 4.599540e+00 -1.742569e+01
      vertex   -1.583148e+01 5.261534e+00 -1.712233e+01
      vertex   -1.559874e+01 4.846253e+00 -1.735508e+01
    endloop
  endfacet
  facet normal -7.071068e-01 2.074790e-11 -7.071068e-01
    outer loop
      vertex   -1.559874e+01 4.846253e+00 -1.735508e+01
      vertex   -1.583148e+01 5.261534e+00 -1.712233e+01
      vertex   -1.570109e+01 5.069609e+00 -1.725273e+01
    endloop
  endfacet
  facet normal 8.486608e-01 4.088343e-01 -3.356030e-01
    outer loop
      vertex   -1.495631e+01 4.494487e+00 -1.615903e+01
      vertex   -1.559874e+01 4.846253e+00 -1.735508e+01
      vertex   -1.502361e+01 4.689458e+00 -1.609173e+01
    endloop
  endfacet
  facet normal 8.057704e-01 5.084184e-01 -3.037182e-01
    outer loop
      vertex   -1.502361e+01 4.689458e+00 -1.609173e+01
      vertex   -1.559874e+01 4.846253e+00 -1.735508e+01
      vertex   -1.570109e+01 5.069609e+00 -1.725273e+01
    endloop
  endfacet
  facet normal 7.622708e-01 5.973575e-01 -2.492131e-01
    outer loop
      vertex   -1.502361e+01 4.689458e+00 -1.609173e+01
      vertex   -1.570109e+01 5.069609e+00 -1.725273e+01
      vertex   -1.512196e+01 4.855983e+00 -1.599338e+01
    endloop
  endfacet
  facet normal 7.280897e-01 6.475076e-01 -2.249872e-01
    outer loop
      vertex   -1.512196e+01 4.855983e+00 -1.599338e+01
      vertex   -1.570109e+01 5.069609e+00 -1.725273e+01
      vertex   -1.583148e+01 5.261534e+00 -1.712233e+01
    endloop
  endfacet
  facet normal 6.452404e-01 7.518811e-01 -1.354240e-01
    outer loop
      vertex   -1.512196e+01 4.855983e+00 -1.599338e+01
      vertex   -1.583148e+01 5.261534e+00 -1.712233e+01
      vertex   -1.524563e+01 4.984384e+00 -1.586971e+01
    endloop
  endfacet
  facet normal 6.340530e-01 7.626546e-01 -1.278079e-01
    outer loop
      vertex   -1.524563e+01 4.984384e+00 -1.586971e+01
      vertex   -1.583148e+01 5.261534e+00 -1.712233e+01
      vertex   -1.598520e+01 5.415093e+00 -1.696861e+01
    endloop
  endfacet
  facet normal 5.246424e-01 8.510991e-01 -1.950760e-02
    outer loop
      vertex   -1.524563e+01 4.984384e+00 -1.586971e+01
      vertex   -1.598520e+01 5.415093e+00 -1.696861e+01
      vertex   -1.615669e+01 5.524736e+00 -1.679712e+01
    endloop
  endfacet
  facet normal 8.641225e-01 3.506519e-01 -3.610200e-01
    outer loop
      vertex   -1.559874e+01 4.846253e+00 -1.735508e+01
      vertex   -1.495631e+01 4.494487e+00 -1.615903e+01
      vertex   -1.552813e+01 4.599540e+00 -1.742569e+01
    endloop
  endfacet
  facet normal 8.996320e-01 1.967387e-01 -3.898156e-01
    outer loop
      vertex   -1.552813e+01 4.599540e+00 -1.742569e+01
      vertex   -1.495631e+01 4.494487e+00 -1.615903e+01
      vertex   -1.492395e+01 4.282402e+00 -1.619139e+01
    endloop
  endfacet
  facet normal 9.009594e-01 1.802018e-01 -3.947144e-01
    outer loop
      vertex   -1.552813e+01 4.599540e+00 -1.742569e+01
      vertex   -1.492395e+01 4.282402e+00 -1.619139e+01
      vertex   -1.549181e+01 4.338387e+00 -1.746201e+01
    endloop
  endfacet
  facet normal 9.130244e-01 3.558275e-03 -4.078895e-01
    outer loop
      vertex   -1.549181e+01 4.338387e+00 -1.746201e+01
      vertex   -1.492395e+01 4.282402e+00 -1.619139e+01
      vertex   -1.549109e+01 4.072232e+00 -1.746273e+01
    endloop
  endfacet
  facet normal 9.145755e-01 -2.717069e-02 -4.035015e-01
    outer loop
      vertex   -1.549109e+01 4.072232e+00 -1.746273e+01
      vertex   -1.492395e+01 4.282402e+00 -1.619139e+01
      vertex   -1.492842e+01 4.065528e+00 -1.618692e+01
    endloop
  endfacet
  facet normal 9.007690e-01 -1.733992e-01 -3.981807e-01
    outer loop
      vertex   -1.549109e+01 4.072232e+00 -1.746273e+01
      vertex   -1.492842e+01 4.065528e+00 -1.618692e+01
      vertex   -1.552600e+01 3.810695e+00 -1.742781e+01
    endloop
  endfacet
  facet normal 8.915510e-01 -2.492583e-01 -3.781629e-01
    outer loop
      vertex   -1.552600e+01 3.810695e+00 -1.742781e+01
      vertex   -1.492842e+01 4.065528e+00 -1.618692e+01
      vertex   -1.496946e+01 3.856469e+00 -1.614588e+01
    endloop
  endfacet
  facet normal 8.656821e-01 -3.441367e-01 -3.635441e-01
    outer loop
      vertex   -1.552600e+01 3.810695e+00 -1.742781e+01
      vertex   -1.496946e+01 3.856469e+00 -1.614588e+01
      vertex   -1.559529e+01 3.563228e+00 -1.735853e+01
    endloop
  endfacet
  facet normal 8.306176e-01 -4.570034e-01 -3.181547e-01
    outer loop
      vertex   -1.559529e+01 3.563228e+00 -1.735853e+01
      vertex   -1.496946e+01 3.856469e+00 -1.614588e+01
      vertex   -1.504468e+01 3.667375e+00 -1.607066e+01
    endloop
  endfacet
  facet normal 8.090828e-01 -5.021753e-01 -3.052951e-01
    outer loop
      vertex   -1.559529e+01 3.563228e+00 -1.735853e+01
      vertex   -1.504468e+01 3.667375e+00 -1.607066e+01
      vertex   -1.569643e+01 3.338776e+00 -1.725739e+01
    endloop
  endfacet
  facet normal 7.350950e-01 -6.389021e-01 -2.268024e-01
    outer loop
      vertex   -1.569643e+01 3.338776e+00 -1.725739e+01
      vertex   -1.504468e+01 3.667375e+00 -1.607066e+01
      vertex   -1.514972e+01 3.509235e+00 -1.596562e+01
    endloop
  endfacet
  facet normal 7.331608e-01 -6.415321e-01 -2.256367e-01
    outer loop
      vertex   -1.569643e+01 3.338776e+00 -1.725739e+01
      vertex   -1.514972e+01 3.509235e+00 -1.596562e+01
      vertex   -1.582578e+01 3.145451e+00 -1.712803e+01
    endloop
  endfacet
  facet normal 6.373540e-01 -7.589785e-01 -1.331598e-01
    outer loop
      vertex   -1.582578e+01 3.145451e+00 -1.712803e+01
      vertex   -1.514972e+01 3.509235e+00 -1.596562e+01
      vertex   -1.597867e+01 2.990240e+00 -1.697515e+01
    endloop
  endfacet
  facet normal 6.144933e-01 -7.822446e-01 -1.024271e-01
    outer loop
      vertex   -1.597867e+01 2.990240e+00 -1.697515e+01
      vertex   -1.514972e+01 3.509235e+00 -1.596562e+01
      vertex   -1.527847e+01 3.391240e+00 -1.583687e+01
    endloop
  endfacet
  facet normal 5.280057e-01 -8.488500e-01 -2.576048e-02
    outer loop
      vertex   -1.597867e+01 2.990240e+00 -1.697515e+01
      vertex   -1.527847e+01 3.391240e+00 -1.583687e+01
      vertex   -1.614957e+01 2.878753e+00 -1.680425e+01
    endloop
  endfacet
  facet normal 4.723100e-01 -8.804717e-01 4.114423e-02
    outer loop
      vertex   -1.614957e+01 2.878753e+00 -1.680425e+01
      vertex   -1.527847e+01 3.391240e+00 -1.583687e+01
      vertex   -1.542344e+01 3.320247e+00 -1.569190e+01
    endloop
  endfacet
  facet normal 4.094765e-01 -9.075765e-01 9.291885e-02
    outer loop
      vertex   -1.614957e+01 2.878753e+00 -1.680425e+01
      vertex   -1.542344e+01 3.320247e+00 -1.569190e+01
      vertex   -1.633229e+01 2.815019e+00 -1.662153e+01
    endloop
  endfacet
  facet normal 3.161580e-01 -9.283562e-01 1.954452e-01
    outer loop
      vertex   -1.633229e+01 2.815019e+00 -1.662153e+01
      vertex   -1.542344e+01 3.320247e+00 -1.569190e+01
      vertex   -1.557621e+01 3.300382e+00 -1.553913e+01
    endloop
  endfacet
  facet normal 2.862655e-01 -9.329326e-01 2.183778e-01
    outer loop
      vertex   -1.633229e+01 2.815019e+00 -1.662153e+01
      vertex   -1.557621e+01 3.300382e+00 -1.553913e+01
      vertex   -1.652025e+01 2.801342e+00 -1.643357e+01
    endloop
  endfacet
  facet normal 1.619753e-01 -9.245627e-01 3.448882e-01
    outer loop
      vertex   -1.652025e+01 2.801342e+00 -1.643357e+01
      vertex   -1.557621e+01 3.300382e+00 -1.553913e+01
      vertex   -1.670663e+01 2.838216e+00 -1.624719e+01
    endloop
  endfacet
  facet normal 1.559757e-01 -9.224876e-01 3.531121e-01
    outer loop
      vertex   -1.670663e+01 2.838216e+00 -1.624719e+01
      vertex   -1.557621e+01 3.300382e+00 -1.553913e+01
      vertex   -1.572791e+01 3.332800e+00 -1.538743e+01
    endloop
  endfacet
  facet normal 3.796966e-02 -8.842572e-01 4.654541e-01
    outer loop
      vertex   -1.670663e+01 2.838216e+00 -1.624719e+01
      vertex   -1.572791e+01 3.332800e+00 -1.538743e+01
      vertex   -1.688472e+01 2.924309e+00 -1.606910e+01
    endloop
  endfacet
  facet normal 4.861772e-03 -8.613837e-01 5.079316e-01
    outer loop
      vertex   -1.688472e+01 2.924309e+00 -1.606910e+01
      vertex   -1.572791e+01 3.332800e+00 -1.538743e+01
      vertex   -1.586971e+01 3.415616e+00 -1.524563e+01
    endloop
  endfacet
  facet normal -7.730235e-02 -8.113863e-01 5.793760e-01
    outer loop
      vertex   -1.688472e+01 2.924309e+00 -1.606910e+01
      vertex   -1.586971e+01 3.415616e+00 -1.524563e+01
      vertex   -1.704806e+01 3.056508e+00 -1.590576e+01
    endloop
  endfacet
  facet normal -1.333093e-01 -7.511205e-01 6.465653e-01
    outer loop
      vertex   -1.704806e+01 3.056508e+00 -1.590576e+01
      vertex   -1.586971e+01 3.415616e+00 -1.524563e+01
      vertex   -1.599338e+01 3.544017e+00 -1.512196e+01
    endloop
  endfacet
  facet normal -1.794811e-01 -7.086934e-01 6.823051e-01
    outer loop
      vertex   -1.704806e+01 3.056508e+00 -1.590576e+01
      vertex   -1.599338e+01 3.544017e+00 -1.512196e+01
      vertex   -1.719076e+01 3.230036e+00 -1.576306e+01
    endloop
  endfacet
  facet normal -2.508870e-01 -5.978114e-01 7.613654e-01
    outer loop
      vertex   -1.719076e+01 3.230036e+00 -1.576306e+01
      vertex   -1.599338e+01 3.544017e+00 -1.512196e+01
      vertex   -1.609173e+01 3.710542e+00 -1.502361e+01
    endloop
  endfacet
  facet normal -2.646844e-01 -5.800845e-01 7.703532e-01
    outer loop
      vertex   -1.719076e+01 3.230036e+00 -1.576306e+01
      vertex   -1.609173e+01 3.710542e+00 -1.502361e+01
      vertex   -1.730766e+01 3.438622e+00 -1.564616e+01
    endloop
  endfacet
  facet normal -3.329596e-01 -4.310921e-01 8.386284e-01
    outer loop
      vertex   -1.730766e+01 3.438622e+00 -1.564616e+01
      vertex   -1.609173e+01 3.710542e+00 -1.502361e+01
      vertex   -1.739454e+01 3.674725e+00 -1.555928e+01
    endloop
  endfacet
  facet normal -3.373426e-01 -4.091450e-01 8.478210e-01
    outer loop
      vertex   -1.739454e+01 3.674725e+00 -1.555928e+01
      vertex   -1.609173e+01 3.710542e+00 -1.502361e+01
      vertex   -1.615903e+01 3.905513e+00 -1.495631e+01
    endloop
  endfacet
  facet normal -3.820053e-01 -2.667379e-01 8.848293e-01
    outer loop
      vertex   -1.739454e+01 3.674725e+00 -1.555928e+01
      vertex   -1.615903e+01 3.905513e+00 -1.495631e+01
      vertex   -1.744825e+01 3.929813e+00 -1.550557e+01
    endloop
  endfacet
  facet normal -3.874436e-01 -1.965397e-01 9.006995e-01
    outer loop
      vertex   -1.744825e+01 3.929813e+00 -1.550557e+01
      vertex   -1.615903e+01 3.905513e+00 -1.495631e+01
      vertex   -1.619139e+01 4.117598e+00 -1.492395e+01
    endloop
  endfacet
  facet normal -4.067708e-01 -9.240863e-02 9.088444e-01
    outer loop
      vertex   -1.744825e+01 3.929813e+00 -1.550557e+01
      vertex   -1.619139e+01 4.117598e+00 -1.492395e+01
      vertex   -1.746685e+01 4.194667e+00 -1.548697e+01
    endloop
  endfacet
  facet normal -4.023081e-01 2.715693e-02 9.151015e-01
    outer loop
      vertex   -1.746685e+01 4.194667e+00 -1.548697e+01
      vertex   -1.619139e+01 4.117598e+00 -1.492395e+01
      vertex   -1.618692e+01 4.334472e+00 -1.492842e+01
    endloop
  endfacet
  facet normal -4.063188e-01 8.528491e-02 9.097426e-01
    outer loop
      vertex   -1.746685e+01 4.194667e+00 -1.548697e+01
      vertex   -1.618692e+01 4.334472e+00 -1.492842e+01
      vertex   -1.744968e+01 4.459713e+00 -1.550414e+01
    endloop
  endfacet
  facet normal -3.811163e-01 2.495737e-01 8.902041e-01
    outer loop
      vertex   -1.744968e+01 4.459713e+00 -1.550414e+01
      vertex   -1.618692e+01 4.334472e+00 -1.492842e+01
      vertex   -1.614588e+01 4.543531e+00 -1.496946e+01
    endloop
  endfacet
  facet normal -3.806628e-01 2.596015e-01 8.875263e-01
    outer loop
      vertex   -1.744968e+01 4.459713e+00 -1.550414e+01
      vertex   -1.614588e+01 4.543531e+00 -1.496946e+01
      vertex   -1.739734e+01 4.715372e+00 -1.555648e+01
    endloop
  endfacet
  facet normal -3.359525e-01 4.248937e-01 8.405958e-01
    outer loop
      vertex   -1.739734e+01 4.715372e+00 -1.555648e+01
      vertex   -1.614588e+01 4.543531e+00 -1.496946e+01
      vertex   -1.731174e+01 4.952405e+00 -1.564208e+01
    endloop
  endfacet
  facet normal -3.187300e-01 4.571191e-01 8.303332e-01
    outer loop
      vertex   -1.731174e+01 4.952405e+00 -1.564208e+01
      vertex   -1.614588e+01 4.543531e+00 -1.496946e+01
      vertex   -1.607066e+01 4.732625e+00 -1.504468e+01
    endloop
  endfacet
  facet normal -2.699236e-01 5.750346e-01 7.723189e-01
    outer loop
      vertex   -1.731174e+01 4.952405e+00 -1.564208e+01
      vertex   -1.607066e+01 4.732625e+00 -1.504468e+01
      vertex   -1.719597e+01 5.162244e+00 -1.575785e+01
    endloop
  endfacet
  facet normal -2.234929e-01 6.379341e-01 7.369471e-01
    outer loop
      vertex   -1.719597e+01 5.162244e+00 -1.575785e+01
      vertex   -1.607066e+01 4.732625e+00 -1.504468e+01
      vertex   -1.596562e+01 4.890765e+00 -1.514972e+01
    endloop
  endfacet
  facet normal -1.836484e-01 7.041471e-01 6.858937e-01
    outer loop
      vertex   -1.719597e+01 5.162244e+00 -1.575785e+01
      vertex   -1.596562e+01 4.890765e+00 -1.514972e+01
      vertex   -1.705420e+01 5.337304e+00 -1.589961e+01
    endloop
  endfacet
  facet normal -1.024271e-01 7.822446e-01 6.144933e-01
    outer loop
      vertex   -1.705420e+01 5.337304e+00 -1.589961e+01
      vertex   -1.596562e+01 4.890765e+00 -1.514972e+01
      vertex   -1.583687e+01 5.008760e+00 -1.527847e+01
    endloop
  endfacet
  facet normal -8.040077e-02 8.073317e-01 5.845950e-01
    outer loop
      vertex   -1.705420e+01 5.337304e+00 -1.589961e+01
      vertex   -1.583687e+01 5.008760e+00 -1.527847e+01
      vertex   -1.689158e+01 5.471260e+00 -1.606224e+01
    endloop
  endfacet
  facet normal 3.552147e-02 8.808813e-01 4.720025e-01
    outer loop
      vertex   -1.689158e+01 5.471260e+00 -1.606224e+01
      vertex   -1.583687e+01 5.008760e+00 -1.527847e+01
      vertex   -1.671396e+01 5.559269e+00 -1.623986e+01
    endloop
  endfacet
  facet normal 3.823631e-02 8.818078e-01 4.700563e-01
    outer loop
      vertex   -1.671396e+01 5.559269e+00 -1.623986e+01
      vertex   -1.583687e+01 5.008760e+00 -1.527847e+01
      vertex   -1.569190e+01 5.079753e+00 -1.542344e+01
    endloop
  endfacet
  facet normal 1.553730e-01 9.243735e-01 3.484147e-01
    outer loop
      vertex   -1.671396e+01 5.559269e+00 -1.623986e+01
      vertex   -1.569190e+01 5.079753e+00 -1.542344e+01
      vertex   -1.652778e+01 5.598150e+00 -1.642604e+01
    endloop
  endfacet
  facet normal 1.958903e-01 9.281211e-01 3.165726e-01
    outer loop
      vertex   -1.652778e+01 5.598150e+00 -1.642604e+01
      vertex   -1.569190e+01 5.079753e+00 -1.542344e+01
      vertex   -1.553913e+01 5.099618e+00 -1.557621e+01
    endloop
  endfacet
  facet normal 2.800066e-01 9.339454e-01 2.221314e-01
    outer loop
      vertex   -1.652778e+01 5.598150e+00 -1.642604e+01
      vertex   -1.553913e+01 5.099618e+00 -1.557621e+01
      vertex   -1.633976e+01 5.586499e+00 -1.661406e+01
    endloop
  endfacet
  facet normal 3.551377e-01 9.213219e-01 1.582504e-01
    outer loop
      vertex   -1.633976e+01 5.586499e+00 -1.661406e+01
      vertex   -1.553913e+01 5.099618e+00 -1.557621e+01
      vertex   -1.538743e+01 5.067200e+00 -1.572791e+01
    endloop
  endfacet
  facet normal 4.046703e-01 9.092052e-01 9.791801e-02
    outer loop
      vertex   -1.633976e+01 5.586499e+00 -1.661406e+01
      vertex   -1.538743e+01 5.067200e+00 -1.572791e+01
      vertex   -1.615669e+01 5.524736e+00 -1.679712e+01
    endloop
  endfacet
  facet normal 5.071993e-01 8.618201e-01 3.874637e-03
    outer loop
      vertex   -1.615669e+01 5.524736e+00 -1.679712e+01
      vertex   -1.538743e+01 5.067200e+00 -1.572791e+01
      vertex   -1.524563e+01 4.984384e+00 -1.586971e+01
    endloop
  endfacet
  facet normal 6.354218e-01 4.387236e-01 -6.354218e-01
    outer loop
      vertex   -1.226930e+01 4.494487e+00 -1.347203e+01
      vertex   -1.495631e+01 4.494487e+00 -1.615903e+01
      vertex   -1.233661e+01 4.689458e+00 -1.340472e+01
    endloop
  endfacet
  facet normal 6.354218e-01 4.387236e-01 -6.354218e-01
    outer loop
      vertex   -1.233661e+01 4.689458e+00 -1.340472e+01
      vertex   -1.495631e+01 4.494487e+00 -1.615903e+01
      vertex   -1.502361e+01 4.689458e+00 -1.609173e+01
    endloop
  endfacet
  facet normal 5.427160e-01 6.410294e-01 -5.427160e-01
    outer loop
      vertex   -1.233661e+01 4.689458e+00 -1.340472e+01
      vertex   -1.502361e+01 4.689458e+00 -1.609173e+01
      vertex   -1.243495e+01 4.855983e+00 -1.330637e+01
    endloop
  endfacet
  facet normal 5.427160e-01 6.410294e-01 -5.427160e-01
    outer loop
      vertex   -1.243495e+01 4.855983e+00 -1.330637e+01
      vertex   -1.502361e+01 4.689458e+00 -1.609173e+01
      vertex   -1.512196e+01 4.855983e+00 -1.599338e+01
    endloop
  endfacet
  facet normal 4.184695e-01 8.060809e-01 -4.184695e-01
    outer loop
      vertex   -1.243495e+01 4.855983e+00 -1.330637e+01
      vertex   -1.512196e+01 4.855983e+00 -1.599338e+01
      vertex   -1.255862e+01 4.984384e+00 -1.318271e+01
    endloop
  endfacet
  facet normal 4.184695e-01 8.060809e-01 -4.184695e-01
    outer loop
      vertex   -1.255862e+01 4.984384e+00 -1.318271e+01
      vertex   -1.512196e+01 4.855983e+00 -1.599338e+01
      vertex   -1.524563e+01 4.984384e+00 -1.586971e+01
    endloop
  endfacet
  facet normal 2.699032e-01 9.242860e-01 -2.699032e-01
    outer loop
      vertex   -1.255862e+01 4.984384e+00 -1.318271e+01
      vertex   -1.524563e+01 4.984384e+00 -1.586971e+01
      vertex   -1.270042e+01 5.067200e+00 -1.304091e+01
    endloop
  endfacet
  facet normal 2.699032e-01 9.242860e-01 -2.699032e-01
    outer loop
      vertex   -1.270042e+01 5.067200e+00 -1.304091e+01
      vertex   -1.524563e+01 4.984384e+00 -1.586971e+01
      vertex   -1.538743e+01 5.067200e+00 -1.572791e+01
    endloop
  endfacet
  facet normal 1.056510e-01 9.887749e-01 -1.056510e-01
    outer loop
      vertex   -1.270042e+01 5.067200e+00 -1.304091e+01
      vertex   -1.538743e+01 5.067200e+00 -1.572791e+01
      vertex   -1.285212e+01 5.099618e+00 -1.288921e+01
    endloop
  endfacet
  facet normal 1.056510e-01 9.887749e-01 -1.056510e-01
    outer loop
      vertex   -1.285212e+01 5.099618e+00 -1.288921e+01
      vertex   -1.538743e+01 5.067200e+00 -1.572791e+01
      vertex   -1.553913e+01 5.099618e+00 -1.557621e+01
    endloop
  endfacet
  facet normal -6.474121e-02 9.957998e-01 6.474121e-02
    outer loop
      vertex   -1.285212e+01 5.099618e+00 -1.288921e+01
      vertex   -1.553913e+01 5.099618e+00 -1.557621e+01
      vertex   -1.300489e+01 5.079753e+00 -1.273644e+01
    endloop
  endfacet
  facet normal -6.474121e-02 9.957998e-01 6.474121e-02
    outer loop
      vertex   -1.300489e+01 5.079753e+00 -1.273644e+01
      vertex   -1.553913e+01 5.099618e+00 -1.557621e+01
      vertex   -1.569190e+01 5.079753e+00 -1.542344e+01
    endloop
  endfacet
  facet normal -2.313709e-01 9.449524e-01 2.313709e-01
    outer loop
      vertex   -1.300489e+01 5.079753e+00 -1.273644e+01
      vertex   -1.569190e+01 5.079753e+00 -1.542344e+01
      vertex   -1.314987e+01 5.008760e+00 -1.259146e+01
    endloop
  endfacet
  facet normal -2.313709e-01 9.449524e-01 2.313709e-01
    outer loop
      vertex   -1.314987e+01 5.008760e+00 -1.259146e+01
      vertex   -1.569190e+01 5.079753e+00 -1.542344e+01
      vertex   -1.583687e+01 5.008760e+00 -1.527847e+01
    endloop
  endfacet
  facet normal -3.845542e-01 8.391878e-01 3.845542e-01
    outer loop
      vertex   -1.314987e+01 5.008760e+00 -1.259146e+01
      vertex   -1.583687e+01 5.008760e+00 -1.527847e+01
      vertex   -1.327861e+01 4.890765e+00 -1.246272e+01
    endloop
  endfacet
  facet normal -3.845542e-01 8.391878e-01 3.845542e-01
    outer loop
      vertex   -1.327861e+01 4.890765e+00 -1.246272e+01
      vertex   -1.583687e+01 5.008760e+00 -1.527847e+01
      vertex   -1.596562e+01 4.890765e+00 -1.514972e+01
    endloop
  endfacet
  facet normal -5.153885e-01 6.846527e-01 5.153885e-01
    outer loop
      vertex   -1.327861e+01 4.890765e+00 -1.246272e+01
      vertex   -1.596562e+01 4.890765e+00 -1.514972e+01
      vertex   -1.338365e+01 4.732625e+00 -1.235768e+01
    endloop
  endfacet
  facet normal -5.153885e-01 6.846527e-01 5.153885e-01
    outer loop
      vertex   -1.338365e+01 4.732625e+00 -1.235768e+01
      vertex   -1.596562e+01 4.890765e+00 -1.514972e+01
      vertex   -1.607066e+01 4.732625e+00 -1.504468e+01
    endloop
  endfacet
  facet normal -6.162704e-01 4.903281e-01 6.162704e-01
    outer loop
      vertex   -1.338365e+01 4.732625e+00 -1.235768e+01
      vertex   -1.607066e+01 4.732625e+00 -1.504468e+01
      vertex   -1.345888e+01 4.543531e+00 -1.228245e+01
    endloop
  endfacet
  facet normal -6.162704e-01 4.903281e-01 6.162704e-01
    outer loop
      vertex   -1.345888e+01 4.543531e+00 -1.228245e+01
      vertex   -1.607066e+01 4.732625e+00 -1.504468e+01
      vertex   -1.614588e+01 4.543531e+00 -1.496946e+01
    endloop
  endfacet
  facet normal -6.813369e-01 2.675073e-01 6.813369e-01
    outer loop
      vertex   -1.345888e+01 4.543531e+00 -1.228245e+01
      vertex   -1.614588e+01 4.543531e+00 -1.496946e+01
      vertex   -1.349992e+01 4.334472e+00 -1.224141e+01
    endloop
  endfacet
  facet normal -6.813369e-01 2.675073e-01 6.813369e-01
    outer loop
      vertex   -1.349992e+01 4.334472e+00 -1.224141e+01
      vertex   -1.614588e+01 4.543531e+00 -1.496946e+01
      vertex   -1.618692e+01 4.334472e+00 -1.492842e+01
    endloop
  endfacet
  facet normal -7.068065e-01 2.914006e-02 7.068065e-01
    outer loop
      vertex   -1.349992e+01 4.334472e+00 -1.224141e+01
      vertex   -1.618692e+01 4.334472e+00 -1.492842e+01
      vertex   -1.350439e+01 4.117598e+00 -1.223694e+01
    endloop
  endfacet
  facet normal -7.068065e-01 2.914006e-02 7.068065e-01
    outer loop
      vertex   -1.350439e+01 4.117598e+00 -1.223694e+01
      vertex   -1.618692e+01 4.334472e+00 -1.492842e+01
      vertex   -1.619139e+01 4.117598e+00 -1.492395e+01
    endloop
  endfacet
  facet normal -6.911991e-01 -2.109207e-01 6.911991e-01
    outer loop
      vertex   -1.350439e+01 4.117598e+00 -1.223694e+01
      vertex   -1.619139e+01 4.117598e+00 -1.492395e+01
      vertex   -1.347203e+01 3.905513e+00 -1.226930e+01
    endloop
  endfacet
  facet normal -6.911991e-01 -2.109207e-01 6.911991e-01
    outer loop
      vertex   -1.347203e+01 3.905513e+00 -1.226930e+01
      vertex   -1.619139e+01 4.117598e+00 -1.492395e+01
      vertex   -1.615903e+01 3.905513e+00 -1.495631e+01
    endloop
  endfacet
  facet normal -6.354218e-01 -4.387236e-01 6.354218e-01
    outer loop
      vertex   -1.347203e+01 3.905513e+00 -1.226930e+01
      vertex   -1.615903e+01 3.905513e+00 -1.495631e+01
      vertex   -1.340472e+01 3.710542e+00 -1.233661e+01
    endloop
  endfacet
  facet normal -6.354218e-01 -4.387236e-01 6.354218e-01
    outer loop
      vertex   -1.340472e+01 3.710542e+00 -1.233661e+01
      vertex   -1.615903e+01 3.905513e+00 -1.495631e+01
      vertex   -1.609173e+01 3.710542e+00 -1.502361e+01
    endloop
  endfacet
  facet normal -5.427160e-01 -6.410294e-01 5.427160e-01
    outer loop
      vertex   -1.340472e+01 3.710542e+00 -1.233661e+01
      vertex   -1.609173e+01 3.710542e+00 -1.502361e+01
      vertex   -1.330637e+01 3.544017e+00 -1.243495e+01
    endloop
  endfacet
  facet normal -5.427160e-01 -6.410294e-01 5.427160e-01
    outer loop
      vertex   -1.330637e+01 3.544017e+00 -1.243495e+01
      vertex   -1.609173e+01 3.710542e+00 -1.502361e+01
      vertex   -1.599338e+01 3.544017e+00 -1.512196e+01
    endloop
  endfacet
  facet normal -4.184695e-01 -8.060809e-01 4.184695e-01
    outer loop
      vertex   -1.330637e+01 3.544017e+00 -1.243495e+01
      vertex   -1.599338e+01 3.544017e+00 -1.512196e+01
      vertex   -1.318271e+01 3.415616e+00 -1.255862e+01
    endloop
  endfacet
  facet normal -4.184695e-01 -8.060809e-01 4.184695e-01
    outer loop
      vertex   -1.318271e+01 3.415616e+00 -1.255862e+01
      vertex   -1.599338e+01 3.544017e+00 -1.512196e+01
      vertex   -1.586971e+01 3.415616e+00 -1.524563e+01
    endloop
  endfacet
  facet normal -2.699032e-01 -9.242860e-01 2.699032e-01
    outer loop
      vertex   -1.318271e+01 3.415616e+00 -1.255862e+01
      vertex   -1.586971e+01 3.415616e+00 -1.524563e+01
      vertex   -1.304091e+01 3.332800e+00 -1.270042e+01
    endloop
  endfacet
  facet normal -2.699032e-01 -9.242860e-01 2.699032e-01
    outer loop
      vertex   -1.304091e+01 3.332800e+00 -1.270042e+01
      vertex   -1.586971e+01 3.415616e+00 -1.524563e+01
      vertex   -1.572791e+01 3.332800e+00 -1.538743e+01
    endloop
  endfacet
  facet normal -1.056510e-01 -9.887749e-01 1.056510e-01
    outer loop
      vertex   -1.304091e+01 3.332800e+00 -1.270042e+01
      vertex   -1.572791e+01 3.332800e+00 -1.538743e+01
      vertex   -1.288921e+01 3.300382e+00 -1.285212e+01
    endloop
  endfacet
  facet normal -1.056510e-01 -9.887749e-01 1.056510e-01
    outer loop
      vertex   -1.288921e+01 3.300382e+00 -1.285212e+01
      vertex   -1.572791e+01 3.332800e+00 -1.538743e+01
      vertex   -1.557621e+01 3.300382e+00 -1.553913e+01
    endloop
  endfacet
  facet normal 6.474121e-02 -9.957998e-01 -6.474121e-02
    outer loop
      vertex   -1.288921e+01 3.300382e+00 -1.285212e+01
      vertex   -1.557621e+01 3.300382e+00 -1.553913e+01
      vertex   -1.273644e+01 3.320247e+00 -1.300489e+01
    endloop
  endfacet
  facet normal 6.474121e-02 -9.957998e-01 -6.474121e-02
    outer loop
      vertex   -1.273644e+01 3.320247e+00 -1.300489e+01
      vertex   -1.557621e+01 3.300382e+00 -1.553913e+01
      vertex   -1.542344e+01 3.320247e+00 -1.569190e+01
    endloop
  endfacet
  facet normal 2.313709e-01 -9.449524e-01 -2.313709e-01
    outer loop
      vertex   -1.273644e+01 3.320247e+00 -1.300489e+01
      vertex   -1.542344e+01 3.320247e+00 -1.569190e+01
      vertex   -1.259146e+01 3.391240e+00 -1.314987e+01
    endloop
  endfacet
  facet normal 2.313709e-01 -9.449524e-01 -2.313709e-01
    outer loop
      vertex   -1.259146e+01 3.391240e+00 -1.314987e+01
      vertex   -1.542344e+01 3.320247e+00 -1.569190e+01
      vertex   -1.527847e+01 3.391240e+00 -1.583687e+01
    endloop
  endfacet
  facet normal 3.845542e-01 -8.391878e-01 -3.845542e-01
    outer loop
      vertex   -1.259146e+01 3.391240e+00 -1.314987e+01
      vertex   -1.527847e+01 3.391240e+00 -1.583687e+01
      vertex   -1.246272e+01 3.509235e+00 -1.327861e+01
    endloop
  endfacet
  facet normal 3.845542e-01 -8.391878e-01 -3.845542e-01
    outer loop
      vertex   -1.246272e+01 3.509235e+00 -1.327861e+01
      vertex   -1.527847e+01 3.391240e+00 -1.583687e+01
      vertex   -1.514972e+01 3.509235e+00 -1.596562e+01
    endloop
  endfacet
  facet normal 5.153885e-01 -6.846527e-01 -5.153885e-01
    outer loop
      vertex   -1.246272e+01 3.509235e+00 -1.327861e+01
      vertex   -1.514972e+01 3.509235e+00 -1.596562e+01
      vertex   -1.235768e+01 3.667375e+00 -1.338365e+01
    endloop
  endfacet
  facet normal 5.153885e-01 -6.846527e-01 -5.153885e-01
    outer loop
      vertex   -1.235768e+01 3.667375e+00 -1.338365e+01
      vertex   -1.514972e+01 3.509235e+00 -1.596562e+01
      vertex   -1.504468e+01 3.667375e+00 -1.607066e+01
    endloop
  endfacet
  facet normal 6.162704e-01 -4.903281e-01 -6.162704e-01
    outer loop
      vertex   -1.235768e+01 3.667375e+00 -1.338365e+01
      vertex   -1.504468e+01 3.667375e+00 -1.607066e+01
      vertex   -1.228245e+01 3.856469e+00 -1.345888e+01
    endloop
  endfacet
  facet normal 6.162704e-01 -4.903281e-01 -6.162704e-01
    outer loop
      vertex   -1.228245e+01 3.856469e+00 -1.345888e+01
      vertex   -1.504468e+01 3.667375e+00 -1.607066e+01
      vertex   -1.496946e+01 3.856469e+00 -1.614588e+01
    endloop
  endfacet
  facet normal 6.813369e-01 -2.675073e-01 -6.813369e-01
    outer loop
      vertex   -1.228245e+01 3.856469e+00 -1.345888e+01
      vertex   -1.496946e+01 3.856469e+00 -1.614588e+01
      vertex   -1.224141e+01 4.065528e+00 -1.349992e+01
    endloop
  endfacet
  facet normal 6.813369e-01 -2.675073e-01 -6.813369e-01
    outer loop
      vertex   -1.224141e+01 4.065528e+00 -1.349992e+01
      vertex   -1.496946e+01 3.856469e+00 -1.614588e+01
      vertex   -1.492842e+01 4.065528e+00 -1.618692e+01
    endloop
  endfacet
  facet normal 7.068065e-01 -2.914006e-02 -7.068065e-01
    outer loop
      vertex   -1.224141e+01 4.065528e+00 -1.349992e+01
      vertex   -1.492842e+01 4.065528e+00 -1.618692e+01
      vertex   -1.223694e+01 4.282402e+00 -1.350439e+01
    endloop
  endfacet
  facet normal 7.068065e-01 -2.914006e-02 -7.068065e-01
    outer loop
      vertex   -1.223694e+01 4.282402e+00 -1.350439e+01
      vertex   -1.492842e+01 4.065528e+00 -1.618692e+01
      vertex   -1.492395e+01 4.282402e+00 -1.619139e+01
    endloop
  endfacet
  facet normal 6.911991e-01 2.109207e-01 -6.911991e-01
    outer loop
      vertex   -1.223694e+01 4.282402e+00 -1.350439e+01
      vertex   -1.492395e+01 4.282402e+00 -1.619139e+01
      vertex   -1.226930e+01 4.494487e+00 -1.347203e+01
    endloop
  endfacet
  facet normal 6.911991e-01 2.109207e-01 -6.911991e-01
    outer loop
      vertex   -1.226930e+01 4.494487e+00 -1.347203e+01
      vertex   -1.492395e+01 4.282402e+00 -1.619139e+01
      vertex   -1.495631e+01 4.494487e+00 -1.615903e+01
    endloop
  endfacet
  facet normal 7.071068e-01 -2.079323e-11 7.071068e-01
    outer loop
      vertex   -1.233661e+01 4.689458e+00 -1.340472e+01
      vertex   -1.243495e+01 4.855983e+00 -1.330637e+01
      vertex   -1.226930e+01 4.494487e+00 -1.347203e+01
    endloop
  endfacet
  facet normal 7.071068e-01 -2.075158e-11 7.071068e-01
    outer loop
      vertex   -1.226930e+01 4.494487e+00 -1.347203e+01
      vertex   -1.243495e+01 4.855983e+00 -1.330637e+01
      vertex   -1.223694e+01 4.282402e+00 -1.350439e+01
    endloop
  endfacet
  facet normal 7.071068e-01 -2.074639e-11 7.071068e-01
    outer loop
      vertex   -1.223694e+01 4.282402e+00 -1.350439e+01
      vertex   -1.243495e+01 4.855983e+00 -1.330637e+01
      vertex   -1.224141e+01 4.065528e+00 -1.349992e+01
    endloop
  endfacet
  facet normal 7.071068e-01 -2.075199e-11 7.071068e-01
    outer loop
      vertex   -1.224141e+01 4.065528e+00 -1.349992e+01
      vertex   -1.243495e+01 4.855983e+00 -1.330637e+01
      vertex   -1.228245e+01 3.856469e+00 -1.345888e+01
    endloop
  endfacet
  facet normal 7.071068e-01 -2.074974e-11 7.071068e-01
    outer loop
      vertex   -1.228245e+01 3.856469e+00 -1.345888e+01
      vertex   -1.243495e+01 4.855983e+00 -1.330637e+01
      vertex   -1.235768e+01 3.667375e+00 -1.338365e+01
    endloop
  endfacet
  facet normal 7.071068e-01 -2.075142e-11 7.071068e-01
    outer loop
      vertex   -1.235768e+01 3.667375e+00 -1.338365e+01
      vertex   -1.243495e+01 4.855983e+00 -1.330637e+01
      vertex   -1.255862e+01 4.984384e+00 -1.318271e+01
    endloop
  endfacet
  facet normal 7.071068e-01 -2.075035e-11 7.071068e-01
    outer loop
      vertex   -1.235768e+01 3.667375e+00 -1.338365e+01
      vertex   -1.255862e+01 4.984384e+00 -1.318271e+01
      vertex   -1.246272e+01 3.509235e+00 -1.327861e+01
    endloop
  endfacet
  facet normal 7.071068e-01 -2.075041e-11 7.071068e-01
    outer loop
      vertex   -1.246272e+01 3.509235e+00 -1.327861e+01
      vertex   -1.255862e+01 4.984384e+00 -1.318271e+01
      vertex   -1.259146e+01 3.391240e+00 -1.314987e+01
    endloop
  endfacet
  facet normal 7.071068e-01 -2.075087e-11 7.071068e-01
    outer loop
      vertex   -1.259146e+01 3.391240e+00 -1.314987e+01
      vertex   -1.255862e+01 4.984384e+00 -1.318271e+01
      vertex   -1.273644e+01 3.320247e+00 -1.300489e+01
    endloop
  endfacet
  facet normal 7.071068e-01 -2.074663e-11 7.071068e-01
    outer loop
      vertex   -1.273644e+01 3.320247e+00 -1.300489e+01
      vertex   -1.255862e+01 4.984384e+00 -1.318271e+01
      vertex   -1.288921e+01 3.300382e+00 -1.285212e+01
    endloop
  endfacet
  facet normal 7.071068e-01 -2.075354e-11 7.071068e-01
    outer loop
      vertex   -1.288921e+01 3.300382e+00 -1.285212e+01
      vertex   -1.255862e+01 4.984384e+00 -1.318271e+01
      vertex   -1.304091e+01 3.332800e+00 -1.270042e+01
    endloop
  endfacet
  facet normal 7.071068e-01 -2.074996e-11 7.071068e-01
    outer loop
      vertex   -1.304091e+01 3.332800e+00 -1.270042e+01
      vertex   -1.255862e+01 4.984384e+00 -1.318271e+01
      vertex   -1.318271e+01 3.415616e+00 -1.255862e+01
    endloop
  endfacet
  facet normal 7.071068e-01 -2.074691e-11 7.071068e-01
    outer loop
      vertex   -1.318271e+01 3.415616e+00 -1.255862e+01
      vertex   -1.255862e+01 4.984384e+00 -1.318271e+01
      vertex   -1.330637e+01 3.544017e+00 -1.243495e+01
    endloop
  endfacet
  facet normal 7.071068e-01 -2.075443e-11 7.071068e-01
    outer loop
      vertex   -1.330637e+01 3.544017e+00 -1.243495e+01
      vertex   -1.255862e+01 4.984384e+00 -1.318271e+01
      vertex   -1.340472e+01 3.710542e+00 -1.233661e+01
    endloop
  endfacet
  facet normal 7.071068e-01 -2.075077e-11 7.071068e-01
    outer loop
      vertex   -1.340472e+01 3.710542e+00 -1.233661e+01
      vertex   -1.255862e+01 4.984384e+00 -1.318271e+01
      vertex   -1.347203e+01 3.905513e+00 -1.226930e+01
    endloop
  endfacet
  facet normal 7.071068e-01 -2.075214e-11 7.071068e-01
    outer loop
      vertex   -1.347203e+01 3.905513e+00 -1.226930e+01
      vertex   -1.255862e+01 4.984384e+00 -1.318271e+01
      vertex   -1.350439e+01 4.117598e+00 -1.223694e+01
    endloop
  endfacet
  facet normal 7.071068e-01 -2.074920e-11 7.071068e-01
    outer loop
      vertex   -1.350439e+01 4.117598e+00 -1.223694e+01
      vertex   -1.255862e+01 4.984384e+00 -1.318271e+01
      vertex   -1.270042e+01 5.067200e+00 -1.304091e+01
    endloop
  endfacet
  facet normal 7.071068e-01 -2.074586e-11 7.071068e-01
    outer loop
      vertex   -1.350439e+01 4.117598e+00 -1.223694e+01
      vertex   -1.270042e+01 5.067200e+00 -1.304091e+01
      vertex   -1.349992e+01 4.334472e+00 -1.224141e+01
    endloop
  endfacet
  facet normal 7.071068e-01 -2.076109e-11 7.071068e-01
    outer loop
      vertex   -1.349992e+01 4.334472e+00 -1.224141e+01
      vertex   -1.270042e+01 5.067200e+00 -1.304091e+01
      vertex   -1.285212e+01 5.099618e+00 -1.288921e+01
    endloop
  endfacet
  facet normal 7.071068e-01 -2.075218e-11 7.071068e-01
    outer loop
      vertex   -1.349992e+01 4.334472e+00 -1.224141e+01
      vertex   -1.285212e+01 5.099618e+00 -1.288921e+01
      vertex   -1.345888e+01 4.543531e+00 -1.228245e+01
    endloop
  endfacet
  facet normal 7.071068e-01 -2.074545e-11 7.071068e-01
    outer loop
      vertex   -1.345888e+01 4.543531e+00 -1.228245e+01
      vertex   -1.285212e+01 5.099618e+00 -1.288921e+01
      vertex   -1.300489e+01 5.079753e+00 -1.273644e+01
    endloop
  endfacet
  facet normal 7.071068e-01 -2.073859e-11 7.071068e-01
    outer loop
      vertex   -1.345888e+01 4.543531e+00 -1.228245e+01
      vertex   -1.300489e+01 5.079753e+00 -1.273644e+01
      vertex   -1.338365e+01 4.732625e+00 -1.235768e+01
    endloop
  endfacet
  facet normal 7.071068e-01 -2.075757e-11 7.071068e-01
    outer loop
      vertex   -1.338365e+01 4.732625e+00 -1.235768e+01
      vertex   -1.300489e+01 5.079753e+00 -1.273644e+01
      vertex   -1.314987e+01 5.008760e+00 -1.259146e+01
    endloop
  endfacet
  facet normal 7.071068e-01 -2.074935e-11 7.071068e-01
    outer loop
      vertex   -1.338365e+01 4.732625e+00 -1.235768e+01
      vertex   -1.314987e+01 5.008760e+00 -1.259146e+01
      vertex   -1.327861e+01 4.890765e+00 -1.246272e+01
    endloop
  endfacet
endsolid
